<?xml version="1.0" encoding="iso-8859-1"?>
<!-- Generator: Adobe Illustrator 19.0.0, SVG Export Plug-In . SVG Version: 6.00 Build 0)  -->
<svg version="1.1" id="Capa_1" xmlns="http://www.w3.org/2000/svg" xmlns:xlink="http://www.w3.org/1999/xlink" x="0px" y="0px"
	 viewBox="0 0 195.365 195.365" style="enable-background:new 0 0 195.365 195.365;" xml:space="preserve">
<path id="XMLID_848_" d="M158.085,27.675c2.05,0,4.306,0.308,6.766,0.923c2.46,0.615,4.577,1.403,6.354,2.357l11.275-24.6
	C173.595,2.121,164.984,0,156.65,0c-5.468,0-10.66,1.025-15.58,3.075c-4.889,2.037-9.34,4.955-13.349,8.744
	c-2.353-1.287-6.726-3.595-12.314-6.028C106.883,2.079,98.741,0,90.785,0c-5.468,0-10.66,1.025-15.58,3.075
	c-4.92,2.05-9.398,4.99-13.428,8.815c-4.032,3.827-7.482,8.475-10.353,13.939c-2.87,5.468-4.99,11.551-6.354,18.245l-1.846,8.815
	H30.31l-5.33,24.805h12.915l-25.01,117.67h32.8l25.011-117.67h33.064l-25.01,117.67h32.8l25.011-117.67h23.369l5.33-24.805h-23.574
	l2.255-10.046C145.99,32.733,150.705,27.675,158.085,27.675z M110.936,44.075l-1.846,8.815H75.82l2.255-10.046
	c2.05-10.111,6.765-15.17,14.145-15.17c2.05,0,4.306,0.308,6.766,0.923c2.124,0.531,3.992,1.191,5.606,1.976
	c0.152,0.074,4.918,2.46,8.797,4.404C112.404,37.874,111.582,40.903,110.936,44.075z"/>
<g>
</g>
<g>
</g>
<g>
</g>
<g>
</g>
<g>
</g>
<g>
</g>
<g>
</g>
<g>
</g>
<g>
</g>
<g>
</g>
<g>
</g>
<g>
</g>
<g>
</g>
<g>
</g>
<g>
</g>
</svg>
