<?xml version="1.0" encoding="iso-8859-1"?>
<!-- Generator: Adobe Illustrator 19.0.0, SVG Export Plug-In . SVG Version: 6.00 Build 0)  -->
<svg version="1.1" id="Capa_1" xmlns="http://www.w3.org/2000/svg" xmlns:xlink="http://www.w3.org/1999/xlink" x="0px" y="0px"
	 viewBox="0 0 450 450" style="enable-background:new 0 0 450 450;" xml:space="preserve">
<g id="XMLID_17_">
	<path id="XMLID_836_" d="M314.967,30l-5.754,12.904C304.378,52.994,294.103,60,282.186,60c-5.457,0-10.575-1.473-14.988-4.029
		c8.959-5.189,14.988-14.872,14.988-25.971c0-16.569-13.43-30-30-30c-16.569,0-30,13.431-30,30c0,0.519,0.013,1.034,0.039,1.547
		C223.051,63.916,249.621,90,282.186,90c2.083,0,4.141-0.111,6.169-0.32l-20.063,44.998C263.147,143.806,253.392,150,242.186,150
		c-5.458,0-10.575-1.473-14.988-4.029c8.958-5.189,14.988-14.872,14.988-25.971c0-16.569-13.43-30-30-30c-16.569,0-30,13.431-30,30
		c0,0.519,0.013,1.034,0.039,1.547C183.051,153.916,209.621,180,242.186,180c2.037,0,4.048-0.105,6.033-0.305l-20.463,45.893
		c-5.27,8.626-14.742,14.412-25.57,14.412c-5.458,0-10.575-1.473-14.988-4.029c8.958-5.189,14.988-14.872,14.988-25.971
		c0-16.569-13.43-30-30-30c-16.569,0-30,13.431-30,30c0,0.519,0.013,1.034,0.039,1.547C143.051,243.916,169.621,270,202.186,270
		c1.99,0,3.957-0.102,5.898-0.292l-20.787,46.618C181.946,324.544,172.704,330,162.186,330c-5.458,0-10.575-1.473-14.988-4.029
		c8.958-5.189,14.988-14.872,14.988-25.971c0-16.569-13.43-30-30-30c-16.569,0-30,13.431-30,30c0,0.519,0.013,1.034,0.039,1.547
		C103.051,333.916,129.621,360,162.186,360c1.95,0,3.87-0.119,5.772-0.303L127.694,450h32.847L347.814,30H314.967z"/>
</g>
<g>
</g>
<g>
</g>
<g>
</g>
<g>
</g>
<g>
</g>
<g>
</g>
<g>
</g>
<g>
</g>
<g>
</g>
<g>
</g>
<g>
</g>
<g>
</g>
<g>
</g>
<g>
</g>
<g>
</g>
</svg>
