<?xml version="1.0" encoding="iso-8859-1"?>
<!-- Generator: Adobe Illustrator 19.0.0, SVG Export Plug-In . SVG Version: 6.00 Build 0)  -->
<svg version="1.1" id="Capa_1" xmlns="http://www.w3.org/2000/svg" xmlns:xlink="http://www.w3.org/1999/xlink" x="0px" y="0px"
	 viewBox="0 0 360 360" style="enable-background:new 0 0 360 360;" xml:space="preserve">
<g id="XMLID_18_">
	<path id="XMLID_835_" d="M249.901,30l-6.545,14.678C238.211,53.806,228.456,60,217.251,60c-5.457,0-10.574-1.472-14.988-4.029
		c8.958-5.189,14.988-14.872,14.988-25.971c0-16.569-13.43-30-30-30c-16.569,0-30,13.431-30,30c0,0.519,0.014,1.034,0.039,1.546
		C158.116,63.917,184.686,90,217.251,90c2.038,0,4.05-0.112,6.036-0.312l-20.467,45.9c-5.27,8.626-14.741,14.411-25.569,14.411
		c-5.457,0-10.574-1.472-14.988-4.029c8.958-5.189,14.988-14.872,14.988-25.971c0-16.569-13.43-30-30-30c-16.569,0-30,13.431-30,30
		c0,0.519,0.014,1.034,0.039,1.546c0.826,32.37,27.395,58.454,59.961,58.454c1.989,0,3.956-0.099,5.896-0.29l-20.787,46.617
		C157.01,234.544,147.768,240,137.251,240c-5.457,0-10.574-1.472-14.988-4.029c8.958-5.189,14.988-14.872,14.988-25.971
		c0-16.569-13.43-30-30-30c-16.569,0-30,13.431-30,30c0,0.519,0.014,1.034,0.039,1.546C78.116,243.917,104.686,270,137.251,270
		c1.943,0,3.865-0.098,5.762-0.28L102.758,360h32.848L282.749,30H249.901z"/>
</g>
<g>
</g>
<g>
</g>
<g>
</g>
<g>
</g>
<g>
</g>
<g>
</g>
<g>
</g>
<g>
</g>
<g>
</g>
<g>
</g>
<g>
</g>
<g>
</g>
<g>
</g>
<g>
</g>
<g>
</g>
</svg>
