<?xml version="1.0" encoding="iso-8859-1"?>
<!-- Generator: Adobe Illustrator 19.0.0, SVG Export Plug-In . SVG Version: 6.00 Build 0)  -->
<svg version="1.1" id="Capa_1" xmlns="http://www.w3.org/2000/svg" xmlns:xlink="http://www.w3.org/1999/xlink" x="0px" y="0px"
	 viewBox="0 0 331.988 331.988" style="enable-background:new 0 0 331.988 331.988;" xml:space="preserve">
<path id="XMLID_854_" d="M329.426,115.871c-1.709-5.396-4.17-10.045-7.379-13.939c-3.213-3.896-7.143-6.97-11.787-9.226
	c-4.648-2.255-9.842-3.382-15.58-3.382c-7.791,0-14.832,1.71-21.115,5.125c-6.289,3.418-11.961,8.2-17.016,14.35l3.895-17.425
	h-28.699l-4.173,19.614c-1.493-3.367-3.329-6.393-5.524-9.057c-3.213-3.896-7.143-6.97-11.787-9.226
	c-4.648-2.255-9.842-3.382-15.58-3.382c-7.791,0-14.832,1.71-21.115,5.125c-6.289,3.418-11.961,8.2-17.016,14.35l3.895-17.425
	h-28.699l-4.029,18.942c-1.438-3.101-3.18-5.898-5.229-8.385c-3.213-3.896-7.142-6.97-11.787-9.226
	c-4.648-2.255-9.84-3.382-15.58-3.382c-7.789,0-14.83,1.71-21.115,5.125c-6.287,3.418-11.961,8.2-17.016,14.35l3.896-17.425H32.184
	L0,242.664h32.799l13.121-61.09c1.774,6.149,5.125,10.936,10.045,14.35c4.92,3.415,11.203,5.125,18.859,5.125
	c7.514,0,14.76-1.845,21.73-5.535c5.729-3.033,10.897-6.936,15.52-11.68l-12.516,58.83h32.801l13.119-61.09
	c1.775,6.149,5.125,10.936,10.045,14.35c4.92,3.415,11.205,5.125,18.861,5.125c7.514,0,14.76-1.845,21.729-5.535
	c5.963-3.156,11.32-7.244,16.082-12.251l-12.637,59.401h32.801l13.119-61.09c1.775,6.149,5.125,10.936,10.045,14.35
	c4.92,3.415,11.205,5.125,18.861,5.125c7.514,0,14.76-1.845,21.729-5.535c6.971-3.689,13.121-8.642,18.451-14.862
	c5.33-6.217,9.564-13.428,12.709-21.627c3.142-8.2,4.715-16.811,4.715-25.83C331.988,127.044,331.133,121.272,329.426,115.871z
	 M95.734,151.337c-1.641,4.17-3.793,7.893-6.457,11.172c-2.666,3.28-5.709,5.913-9.123,7.893c-3.418,1.982-6.971,2.973-10.66,2.973
	c-4.51,0-8.373-1.845-11.582-5.535c-3.213-3.689-5.299-8.268-6.252-13.734l4.715-22.141c3.141-4.51,6.832-8.098,11.068-10.763
	c4.236-2.665,8.336-3.997,12.301-3.997c5.74,0,10.25,2.018,13.529,6.048c3.281,4.032,4.92,9.122,4.92,15.272
	C98.193,142.899,97.375,147.169,95.734,151.337z M195.293,151.337c-1.639,4.17-3.791,7.893-6.457,11.172
	c-2.664,3.28-5.707,5.913-9.123,7.893c-3.416,1.982-6.969,2.973-10.658,2.973c-4.512,0-8.373-1.845-11.584-5.535
	c-3.213-3.689-5.297-8.268-6.252-13.734l4.715-22.141c3.143-4.51,6.832-8.098,11.07-10.763c4.234-2.665,8.334-3.997,12.301-3.997
	c5.738,0,10.25,2.018,13.529,6.048c3.279,4.032,4.92,9.122,4.92,15.272C197.754,142.899,196.934,147.169,195.293,151.337z
	 M295.293,151.337c-1.639,4.17-3.791,7.893-6.457,11.172c-2.664,3.28-5.707,5.913-9.123,7.893
	c-3.416,1.982-6.969,2.973-10.658,2.973c-4.512,0-8.373-1.845-11.584-5.535c-3.213-3.689-5.297-8.268-6.252-13.734l4.715-22.141
	c3.143-4.51,6.832-8.098,11.07-10.763c4.234-2.665,8.334-3.997,12.301-3.997c5.738,0,10.25,2.018,13.529,6.048
	c3.279,4.032,4.92,9.122,4.92,15.272C297.754,142.899,296.934,147.169,295.293,151.337z"/>
<g>
</g>
<g>
</g>
<g>
</g>
<g>
</g>
<g>
</g>
<g>
</g>
<g>
</g>
<g>
</g>
<g>
</g>
<g>
</g>
<g>
</g>
<g>
</g>
<g>
</g>
<g>
</g>
<g>
</g>
</svg>
