<?xml version="1.0" encoding="iso-8859-1"?>
<!-- Generator: Adobe Illustrator 19.0.0, SVG Export Plug-In . SVG Version: 6.00 Build 0)  -->
<svg version="1.1" id="Capa_1" xmlns="http://www.w3.org/2000/svg" xmlns:xlink="http://www.w3.org/1999/xlink" x="0px" y="0px"
	 viewBox="0 0 195.365 195.365" style="enable-background:new 0 0 195.365 195.365;" xml:space="preserve">
<path id="XMLID_847_" d="M125.152,27.675c2.05,0,4.306,0.308,6.766,0.923c2.46,0.615,4.577,1.403,6.354,2.357l11.275-24.6
	C140.662,2.121,132.052,0,123.718,0c-5.468,0-10.66,1.025-15.58,3.075s-9.399,4.99-13.428,8.815
	c-4.032,3.827-7.482,8.475-10.353,13.939c-2.87,5.468-4.99,11.551-6.354,18.245l-1.846,8.815H63.242l-5.33,24.805h12.915
	l-25.01,117.67h32.8l25.011-117.67h23.369l5.33-24.805h-23.574l2.255-10.046C113.058,32.733,117.772,27.675,125.152,27.675z"/>
<g>
</g>
<g>
</g>
<g>
</g>
<g>
</g>
<g>
</g>
<g>
</g>
<g>
</g>
<g>
</g>
<g>
</g>
<g>
</g>
<g>
</g>
<g>
</g>
<g>
</g>
<g>
</g>
<g>
</g>
</svg>
