<?xml version="1.0" encoding="iso-8859-1"?>
<!-- Generator: Adobe Illustrator 19.0.0, SVG Export Plug-In . SVG Version: 6.00 Build 0)  -->
<svg version="1.1" id="Capa_1" xmlns="http://www.w3.org/2000/svg" xmlns:xlink="http://www.w3.org/1999/xlink" x="0px" y="0px"
	 viewBox="0 0 283.717 283.717" style="enable-background:new 0 0 283.717 283.717;" xml:space="preserve">
<path id="XMLID_843_" d="M281.154,91.735c-1.71-5.396-4.17-10.045-7.38-13.939c-3.212-3.896-7.143-6.971-11.787-9.227
	c-4.647-2.254-9.841-3.381-15.58-3.381c-7.79,0-14.831,1.709-21.115,5.125c-6.288,3.418-11.96,8.199-17.015,14.35l3.895-17.426
	h-28.699l-4.202,19.752c-0.155-2.261-0.491-4.439-1.024-6.529c-0.752-2.938-2.049-5.535-3.895-7.789
	c-1.845-2.256-4.34-4.064-7.482-5.434c-3.145-1.363-7.041-2.049-11.686-2.049c-7.789,0-15.24,1.813-22.344,5.432
	c-7.108,3.623-13.326,8.783-18.656,15.479c-0.275-3.006-0.854-5.773-1.742-8.303c-0.891-2.527-2.29-4.715-4.202-6.561
	c-1.915-1.846-4.376-3.313-7.38-4.408c-3.008-1.092-6.697-1.639-11.07-1.639c-7.789,0-15.375,1.742-22.755,5.227
	c-7.38,3.484-13.53,8.441-18.45,14.863l3.896-18.041H22.959L0,174.862h32.799l13.121-61.705c2.869-5.465,6.56-10.01,11.069-13.633
	c4.511-3.619,8.745-5.432,12.71-5.432c2.732,0,4.952,0.957,6.662,2.869c1.707,1.916,2.563,4.854,2.563,8.816
	c0,1.229-0.101,2.563-0.307,3.996c-0.205,1.436-0.445,2.973-0.718,4.613l-12.915,60.475h32.8l12.915-61.705
	c1.365-2.732,3.04-5.26,5.022-7.584c1.979-2.322,4.03-4.338,6.149-6.049c2.118-1.707,4.271-3.039,6.458-3.996
	c2.185-0.955,4.306-1.436,6.354-1.436c2.732,0,4.921,0.957,6.561,2.869c1.641,1.916,2.46,4.854,2.46,8.816
	c0,1.229-0.103,2.563-0.308,3.996c-0.205,1.436-0.445,2.973-0.717,4.613l-12.916,60.475h30.813l-9.29,43.666h32.8l13.12-61.09
	c1.774,6.148,5.125,10.935,10.045,14.35c4.92,3.414,11.205,5.125,18.86,5.125c7.515,0,14.76-1.846,21.729-5.535
	c6.971-3.689,13.12-8.643,18.45-14.863c5.33-6.217,9.564-13.428,12.71-21.627c3.142-8.199,4.715-16.81,4.715-25.83
	C283.717,102.907,282.861,97.136,281.154,91.735z M247.021,127.2c-1.639,4.17-3.792,7.893-6.457,11.172
	c-2.665,3.281-5.708,5.914-9.123,7.893c-3.417,1.982-6.969,2.973-10.659,2.973c-4.511,0-8.373-1.844-11.583-5.535
	c-3.213-3.689-5.297-8.268-6.252-13.734l4.715-22.141c3.143-4.51,6.832-8.098,11.07-10.762c4.234-2.666,8.334-3.998,12.3-3.998
	c5.739,0,10.25,2.018,13.53,6.049c3.279,4.031,4.92,9.121,4.92,15.271C249.482,118.763,248.662,123.032,247.021,127.2z"/>
<g>
</g>
<g>
</g>
<g>
</g>
<g>
</g>
<g>
</g>
<g>
</g>
<g>
</g>
<g>
</g>
<g>
</g>
<g>
</g>
<g>
</g>
<g>
</g>
<g>
</g>
<g>
</g>
<g>
</g>
</svg>
