<?xml version="1.0" encoding="iso-8859-1"?>
<!-- Generator: Adobe Illustrator 19.0.0, SVG Export Plug-In . SVG Version: 6.00 Build 0)  -->
<svg version="1.1" id="Capa_1" xmlns="http://www.w3.org/2000/svg" xmlns:xlink="http://www.w3.org/1999/xlink" x="0px" y="0px"
	 viewBox="0 0 180 180" style="enable-background:new 0 0 180 180;" xml:space="preserve">
<g id="XMLID_19_">
	<path id="XMLID_833_" d="M119.771,30l-7.279,16.325C107.142,54.543,97.898,60,87.381,60c-5.458,0-10.575-1.472-14.988-4.029
		C81.351,50.781,87.381,41.099,87.381,30c0-16.569-13.43-30-30-30c-16.569,0-30,13.431-30,30c0,0.519,0.013,1.034,0.039,1.546
		C28.246,63.917,54.815,90,87.381,90c1.945,0,3.866-0.102,5.764-0.284L52.888,180h32.847l66.884-150H119.771z"/>
</g>
<g>
</g>
<g>
</g>
<g>
</g>
<g>
</g>
<g>
</g>
<g>
</g>
<g>
</g>
<g>
</g>
<g>
</g>
<g>
</g>
<g>
</g>
<g>
</g>
<g>
</g>
<g>
</g>
<g>
</g>
</svg>
