<?xml version="1.0" encoding="iso-8859-1"?>
<!-- Generator: Adobe Illustrator 19.0.0, SVG Export Plug-In . SVG Version: 6.00 Build 0)  -->
<svg version="1.1" id="Capa_1" xmlns="http://www.w3.org/2000/svg" xmlns:xlink="http://www.w3.org/1999/xlink" x="0px" y="0px"
	 viewBox="0 0 153.34 153.34" style="enable-background:new 0 0 153.34 153.34;" xml:space="preserve">
<path id="XMLID_840_" d="M140.322,26.547c-1.71-5.396-4.17-10.045-7.38-13.939c-3.212-3.896-7.143-6.971-11.787-9.227
	C116.508,1.127,111.314,0,105.575,0c-7.79,0-14.831,1.709-21.115,5.125c-6.288,3.418-11.96,8.199-17.015,14.35L71.34,2.049h-28.7
	L10.455,153.34h32.8l13.12-61.09c1.774,6.148,5.125,10.936,10.045,14.35s11.205,5.125,18.86,5.125c7.515,0,14.76-1.846,21.729-5.535
	c6.971-3.689,13.12-8.643,18.45-14.863c5.33-6.217,9.564-13.428,12.71-21.627c3.143-8.199,4.715-16.811,4.715-25.83
	C142.885,37.719,142.029,31.947,140.322,26.547z M106.189,62.012c-1.639,4.17-3.792,7.893-6.457,11.172
	c-2.665,3.281-5.708,5.914-9.123,7.893c-3.417,1.982-6.969,2.973-10.659,2.973c-4.51,0-8.373-1.844-11.583-5.535
	c-3.213-3.689-5.298-8.268-6.252-13.734l4.715-22.141c3.142-4.51,6.832-8.098,11.07-10.762c4.234-2.666,8.334-3.998,12.3-3.998
	c5.739,0,10.25,2.018,13.53,6.049c3.279,4.031,4.92,9.121,4.92,15.271C108.65,53.574,107.83,57.844,106.189,62.012z"/>
<g>
</g>
<g>
</g>
<g>
</g>
<g>
</g>
<g>
</g>
<g>
</g>
<g>
</g>
<g>
</g>
<g>
</g>
<g>
</g>
<g>
</g>
<g>
</g>
<g>
</g>
<g>
</g>
<g>
</g>
</svg>
