<?xml version="1.0" encoding="iso-8859-1"?>
<!-- Generator: Adobe Illustrator 19.0.0, SVG Export Plug-In . SVG Version: 6.00 Build 0)  -->
<svg version="1.1" id="Capa_1" xmlns="http://www.w3.org/2000/svg" xmlns:xlink="http://www.w3.org/1999/xlink" x="0px" y="0px"
	 viewBox="0 0 231.989 231.989" style="enable-background:new 0 0 231.989 231.989;" xml:space="preserve">
<path id="XMLID_832_" d="M229.427,65.872c-1.71-5.396-4.171-10.045-7.38-13.939c-3.213-3.896-7.143-6.97-11.787-9.226
	c-4.648-2.255-9.841-3.382-15.58-3.382c-7.79,0-14.831,1.71-21.115,5.125c-6.288,3.418-11.961,8.2-17.016,14.35l3.895-17.425h-28.7
	l-4.029,18.94c-1.438-3.1-3.179-5.896-5.228-8.383c-3.213-3.896-7.143-6.97-11.787-9.226c-4.648-2.255-9.841-3.382-15.58-3.382
	c-7.79,0-14.831,1.71-21.115,5.125c-6.288,3.418-11.961,8.2-17.016,14.35l3.896-17.425h-28.7L0,192.664h32.8l13.12-61.09
	c1.774,6.149,5.125,10.936,10.045,14.35c4.92,3.415,11.204,5.125,18.86,5.125c7.514,0,14.76-1.845,21.729-5.535
	c5.73-3.033,10.898-6.936,15.52-11.679l-12.515,58.829h32.8l13.12-61.09c1.774,6.149,5.125,10.936,10.045,14.35
	c4.92,3.415,11.204,5.125,18.86,5.125c7.514,0,14.76-1.845,21.73-5.535c6.97-3.689,13.12-8.642,18.45-14.862
	c5.33-6.217,9.564-13.428,12.71-21.627c3.143-8.2,4.715-16.811,4.715-25.83C231.989,77.044,231.134,71.273,229.427,65.872z
	 M95.734,101.337c-1.64,4.17-3.792,7.893-6.457,11.172c-2.665,3.28-5.708,5.913-9.123,7.893c-3.417,1.982-6.97,2.973-10.659,2.973
	c-4.511,0-8.373-1.845-11.583-5.535c-3.213-3.689-5.298-8.268-6.252-13.734l4.715-22.141c3.142-4.51,6.832-8.098,11.069-10.763
	c4.235-2.665,8.335-3.997,12.301-3.997c5.739,0,10.25,2.018,13.529,6.048c3.28,4.032,4.92,9.122,4.92,15.272
	C98.194,92.9,97.375,97.169,95.734,101.337z M195.294,101.337c-1.64,4.17-3.792,7.893-6.457,11.172
	c-2.665,3.28-5.708,5.913-9.123,7.893c-3.417,1.982-6.97,2.973-10.659,2.973c-4.511,0-8.373-1.845-11.583-5.535
	c-3.213-3.689-5.298-8.268-6.252-13.734l4.715-22.141c3.142-4.51,6.832-8.098,11.069-10.763c4.235-2.665,8.335-3.997,12.301-3.997
	c5.739,0,10.25,2.018,13.529,6.048c3.28,4.032,4.92,9.122,4.92,15.272C197.754,92.9,196.934,97.169,195.294,101.337z"/>
<g>
</g>
<g>
</g>
<g>
</g>
<g>
</g>
<g>
</g>
<g>
</g>
<g>
</g>
<g>
</g>
<g>
</g>
<g>
</g>
<g>
</g>
<g>
</g>
<g>
</g>
<g>
</g>
<g>
</g>
</svg>
