<?xml version="1.0" encoding="iso-8859-1"?>
<!-- Generator: Adobe Illustrator 19.0.0, SVG Export Plug-In . SVG Version: 6.00 Build 0)  -->
<svg version="1.1" id="Capa_1" xmlns="http://www.w3.org/2000/svg" xmlns:xlink="http://www.w3.org/1999/xlink" x="0px" y="0px"
	 viewBox="0 0 288.844 288.844" style="enable-background:new 0 0 288.844 288.844;" xml:space="preserve">
<path id="XMLID_846_" d="M264.447,74.413c2.051,0,4.307,0.309,6.766,0.924c2.461,0.615,4.578,1.402,6.355,2.357l11.275-24.6
	c-8.887-4.234-17.496-6.355-25.83-6.355c-5.469,0-10.66,1.025-15.58,3.074c-4.92,2.051-9.398,4.99-13.428,8.816
	c-4.033,3.826-7.482,8.475-10.354,13.939c-2.869,5.467-4.99,11.551-6.354,18.244l-1.846,8.816h-38.889
	c-0.623-1.199-1.352-2.332-2.211-3.383c-1.846-2.256-4.34-4.064-7.482-5.434c-3.146-1.363-7.041-2.049-11.686-2.049
	c-7.789,0-15.24,1.813-22.346,5.432c-7.108,3.623-13.324,8.783-18.654,15.479c-0.275-3.006-0.855-5.773-1.742-8.303
	c-0.891-2.527-2.291-4.715-4.203-6.561c-1.916-1.846-4.375-3.313-7.379-4.408c-3.008-1.092-6.699-1.639-11.07-1.639
	c-7.791,0-15.375,1.742-22.756,5.227c-7.379,3.484-13.529,8.441-18.449,14.863l3.895-18.041H22.961L0,198.439h32.801l13.119-61.705
	c2.871-5.465,6.561-10.01,11.07-13.633c4.51-3.619,8.744-5.432,12.711-5.432c2.732,0,4.951,0.957,6.662,2.869
	c1.707,1.916,2.563,4.854,2.563,8.816c0,1.228-0.103,2.563-0.309,3.996c-0.205,1.436-0.445,2.973-0.717,4.613l-12.914,60.475h32.799
	l12.916-61.705c1.363-2.732,3.039-5.26,5.021-7.584c1.98-2.322,4.029-4.338,6.15-6.049c2.117-1.707,4.27-3.039,6.457-3.996
	c2.186-0.955,4.305-1.436,6.355-1.436c2.732,0,4.92,0.957,6.561,2.869c1.639,1.916,2.459,4.854,2.459,8.816
	c0,1.228-0.102,2.563-0.307,3.996c-0.205,1.436-0.445,2.973-0.719,4.613l-12.914,60.475h32.801l14.76-68.879
	c0.395-1.845,0.724-3.549,0.991-5.125h31.806l-25.01,117.67h32.799l25.012-117.67h23.369l5.33-24.805h-23.574l2.254-10.047
	C252.354,79.472,257.068,74.413,264.447,74.413z"/>
<g>
</g>
<g>
</g>
<g>
</g>
<g>
</g>
<g>
</g>
<g>
</g>
<g>
</g>
<g>
</g>
<g>
</g>
<g>
</g>
<g>
</g>
<g>
</g>
<g>
</g>
<g>
</g>
<g>
</g>
</svg>
