<?xml version="1.0" encoding="iso-8859-1"?>
<!-- Generator: Adobe Illustrator 19.0.0, SVG Export Plug-In . SVG Version: 6.00 Build 0)  -->
<svg version="1.1" id="Capa_1" xmlns="http://www.w3.org/2000/svg" xmlns:xlink="http://www.w3.org/1999/xlink" x="0px" y="0px"
	 viewBox="0 0 235.326 235.326" style="enable-background:new 0 0 235.326 235.326;" xml:space="preserve">
<path id="XMLID_859_" d="M210.931,47.655c2.05,0,4.306,0.308,6.766,0.923c2.46,0.615,4.577,1.403,6.354,2.358l11.275-24.6
	c-8.886-4.234-17.496-6.356-25.83-6.356c-5.468,0-10.66,1.025-15.58,3.075c-4.889,2.037-9.34,4.955-13.349,8.744
	c-2.354-1.287-6.727-3.595-12.314-6.028c-8.524-3.712-16.666-5.791-24.622-5.791c-5.468,0-10.66,1.025-15.58,3.075
	c-4.868,2.028-9.303,4.932-13.299,8.698c-2.371-1.296-6.704-3.576-12.229-5.982C93.998,22.06,85.856,19.98,77.9,19.98
	c-5.468,0-10.66,1.025-15.58,3.075c-4.92,2.05-9.398,4.99-13.428,8.815c-4.032,3.827-7.482,8.475-10.353,13.94
	c-2.87,5.468-4.99,11.551-6.354,18.245l-1.846,8.815H17.425l-5.33,24.805H25.01L0,215.346h32.8l25.011-117.67h32.93l-25.01,117.67
	h32.8l25.011-117.67h33.064l-25.01,117.67h32.8l25.011-117.67h23.369l5.33-24.805h-23.574l2.255-10.046
	C198.836,52.714,203.551,47.655,210.931,47.655z M97.916,64.056l-1.846,8.815H62.936l2.255-10.046
	c2.05-10.111,6.765-15.17,14.145-15.17c2.05,0,4.306,0.308,6.766,0.923c2.124,0.531,3.992,1.191,5.606,1.976
	c0.15,0.073,4.823,2.413,8.681,4.347C99.395,57.814,98.566,60.863,97.916,64.056z M163.781,64.056l-1.846,8.815h-33.27l2.255-10.046
	c2.05-10.111,6.765-15.17,14.145-15.17c2.05,0,4.306,0.308,6.766,0.923c2.124,0.531,3.992,1.191,5.606,1.976
	c0.151,0.074,4.918,2.46,8.797,4.404C165.249,57.854,164.428,60.884,163.781,64.056z"/>
<g>
</g>
<g>
</g>
<g>
</g>
<g>
</g>
<g>
</g>
<g>
</g>
<g>
</g>
<g>
</g>
<g>
</g>
<g>
</g>
<g>
</g>
<g>
</g>
<g>
</g>
<g>
</g>
<g>
</g>
</svg>
